<svg xmlns="http://www.w3.org/2000/svg" height="40px" viewBox="-10 -1000 1000 1000" width="40px" fill="#7AA2F7"><path d="M480.05-64.17q-86.15 0-161.97-32.59-75.82-32.58-132.28-89.04-56.46-56.46-89.04-132.23-32.59-75.77-32.59-161.92 0-87.44 32.78-162.96 32.77-75.51 88.85-131.96l62.87 62.3q-44.87 44.21-70.61 104.22-25.74 60.01-25.74 128.6 0 136.53 95.4 231.98 95.4 95.45 232.28 95.45 137.07 0 232.38-95.4 95.3-95.4 95.3-232.15 0-68.47-24.93-128.48-24.94-60.01-70.18-104.22l62.3-62.3q56.07 56.45 88.7 131.92 32.63 75.46 32.63 162.9 0 86.15-32.75 161.99-32.75 75.85-88.9 132.28-56.14 56.44-131.91 89.02-75.77 32.59-162.59 32.59Zm-44.12-365.09V-896.2h88.14v466.94h-88.14Z"/></svg>
